<?xml version="1.0" standalone="no"?>
<!DOCTYPE svg PUBLIC "-//W3C//DTD SVG 20010904//EN"
 "http://www.w3.org/TR/2001/REC-SVG-20010904/DTD/svg10.dtd">
<svg version="1.0" xmlns="http://www.w3.org/2000/svg"
 width="600.000000pt" height="600.000000pt" viewBox="0 0 600.000000 600.000000"
 preserveAspectRatio="xMidYMid meet">
<metadata>
Created by potrace 1.11, written by Peter Selinger 2001-2013
</metadata>
<g transform="translate(0.000000,600.000000) scale(0.100000,-0.100000)"
fill="#000000" stroke="none">
<path d="M0 5537 l0 -464 358 119 c459 153 794 258 1107 348 138 39 315 91
395 115 80 23 253 70 385 104 132 33 395 101 585 150 l345 90 -1587 0 -1588 1
0 -463z"/>
<path d="M3675 5820 c-1038 -260 -1403 -356 -2015 -533 -201 -58 -432 -124
-515 -146 -82 -23 -373 -115 -645 -204 l-495 -164 -3 -231 c-1 -128 2 -232 6
-232 5 0 83 26 173 59 1041 374 2035 597 3159 711 466 48 914 43 1215 -11 246
-44 482 -184 552 -326 58 -120 40 -313 -47 -486 -54 -108 -120 -194 -278 -363
-171 -183 -344 -340 -532 -484 l-95 -73 43 7 c24 3 105 29 180 57 75 28 274
98 442 156 316 109 845 305 1055 391 l120 50 3 1001 2 1001 -807 -1 -808 -1
-710 -178z"/>
<path d="M3715 4788 c-422 -33 -1076 -137 -1695 -269 -339 -73 -873 -201
-1105 -265 -220 -61 -639 -198 -808 -264 l-107 -41 0 -594 0 -593 82 -11 c287
-41 628 -111 884 -183 82 -23 163 -42 179 -42 l30 -1 0 105 c0 58 -4 341 -9
630 -9 566 -5 644 37 729 43 86 123 113 213 72 52 -24 82 -62 89 -114 3 -23
16 -229 30 -457 32 -541 64 -1012 70 -1027 2 -7 11 -13 18 -13 37 0 739 261
982 365 761 326 1318 691 1775 1161 140 145 298 340 345 426 62 114 39 229
-59 293 -63 42 -193 80 -319 94 -111 13 -472 12 -632 -1z"/>
<path d="M5910 3544 c-253 -105 -1047 -390 -1630 -585 -449 -151 -1157 -378
-1935 -619 -269 -84 -494 -156 -498 -160 -5 -4 38 -48 95 -98 118 -104 239
-226 324 -327 131 -158 293 -439 358 -623 108 -305 81 -623 -61 -716 -79 -52
-209 -69 -318 -41 -277 72 -520 318 -720 730 -115 235 -189 462 -239 729 -14
71 -29 133 -35 139 -8 8 -60 -6 -178 -47 -93 -31 -271 -91 -398 -132 -202 -66
-295 -94 -607 -185 l-68 -20 0 -794 0 -795 3000 0 3000 0 0 319 0 318 -89 -88
c-96 -97 -135 -119 -209 -119 -109 0 -218 72 -242 159 -19 72 1 112 116 231
117 121 145 162 178 262 35 104 39 173 27 434 -12 250 -6 344 30 439 29 79 88
125 160 125 l29 0 0 750 c0 413 -1 750 -2 750 -2 -1 -41 -17 -88 -36z m-825
-933 c124 -56 148 -208 50 -307 -85 -85 -207 -85 -291 0 -128 129 -40 326 146
326 32 0 72 -8 95 -19z m-983 -568 c120 -65 144 -174 92 -403 -37 -157 -39
-303 -6 -376 28 -61 72 -107 126 -129 139 -58 293 99 391 400 33 101 55 219
55 299 0 102 78 176 187 176 68 0 110 -18 150 -63 40 -46 59 -110 78 -262 38
-303 65 -429 137 -640 59 -175 65 -230 29 -269 -33 -35 -82 -47 -142 -36 -117
22 -225 102 -286 211 -17 31 -40 59 -50 63 -21 8 -40 -13 -118 -125 -97 -140
-202 -193 -380 -193 -108 0 -181 17 -261 59 -55 29 -80 31 -92 7 -5 -9 -12
-78 -16 -152 -11 -233 -43 -329 -142 -419 -35 -32 -70 -53 -109 -66 -139 -43
-285 25 -285 134 0 38 1 41 73 164 90 156 152 413 133 558 -11 90 -15 92 -157
100 -140 7 -211 28 -297 85 -96 64 -165 146 -212 254 -21 47 -24 71 -25 165 0
92 4 118 22 157 43 93 155 168 251 168 103 0 246 -60 350 -147 105 -87 169
-96 198 -28 7 18 16 70 19 116 9 123 13 141 38 172 49 62 156 70 249 20z"/>
<path d="M3297 1540 c-19 -27 -10 -68 20 -87 20 -14 34 -14 94 -4 39 6 85 19
102 28 30 15 30 16 12 30 -28 19 -141 53 -180 53 -23 0 -39 -7 -48 -20z"/>
<path d="M0 2185 c0 -231 3 -293 13 -290 6 2 104 32 217 65 241 73 253 76 546
180 213 76 284 105 284 115 0 8 -82 47 -129 61 -148 43 -813 164 -905 164
l-26 0 0 -295z"/>
<path d="M1663 1870 c12 -176 74 -473 131 -623 93 -245 261 -484 377 -537 48
-21 119 -26 150 -10 104 56 47 384 -116 659 -123 208 -267 366 -529 580 -18
16 -19 14 -13 -69z"/>
</g>
</svg>
