<?xml version="1.0" encoding="utf-8"?>
<!-- Generator: Adobe Illustrator 21.1.0, SVG Export Plug-In . SVG Version: 6.00 Build 0)  -->
<!DOCTYPE svg PUBLIC "-//W3C//DTD SVG 1.1//EN" "http://www.w3.org/Graphics/SVG/1.1/DTD/svg11.dtd">
<svg version="1.1" id="Layer_1" xmlns="http://www.w3.org/2000/svg" xmlns:xlink="http://www.w3.org/1999/xlink" x="0px" y="0px"
	 width="54.1px" height="16.1px" viewBox="0 0 54.1 16.1" style="enable-background:new 0 0 54.1 16.1;" xml:space="preserve">
<style type="text/css">
	.st0{fill:#FFFFFF;}
</style>
<g>
	<g>
		<g>
			<path class="st0" d="M0.1,1.3h5.6c3,0,5.2,1.4,5.2,4.7c0,3.3-1.8,4.8-5,4.8H3.8v4.7H0.1V1.3z M3.8,7.9h0.6c1.3,0,2.7,0,2.7-1.7
				c0-1.8-1.2-1.8-2.7-1.8H3.8V7.9z"/>
			<path class="st0" d="M15.9,7.5L15.9,7.5c0.7-1.2,1.8-1.7,3.2-1.7h0.7V9c-0.5-0.3-0.9-0.3-1.4-0.3c-1.9,0-2.4,1.3-2.4,2.9v3.9
				h-3.4V5.9h3.4V7.5z"/>
			<path class="st0" d="M24.6,2.2c0,1.1-0.9,1.9-1.9,1.9c-1.1,0-1.9-0.9-1.9-1.9s0.9-1.9,1.9-1.9C23.7,0.3,24.6,1.1,24.6,2.2z
				 M24.4,15.5h-3.4V5.9h3.4V15.5z"/>
			<path class="st0" d="M30.1,7.1L30.1,7.1c0.8-1.2,1.8-1.6,3.1-1.6c2.6,0,3.6,1.6,3.6,4v6h-3.4v-4.7c0-0.9,0.2-2.5-1.5-2.5
				c-1.4,0-1.8,1-1.8,2.2v5h-3.4V5.9h3.4V7.1z"/>
			<path class="st0" d="M46,9c-0.5-0.4-1.1-0.7-1.8-0.7c-1.3,0-2.4,1-2.4,2.4c0,1.4,1,2.4,2.4,2.4c0.6,0,1.3-0.2,1.7-0.7v2.9
				c-0.8,0.4-1.6,0.5-2.4,0.5c-2.9,0-5.3-2.1-5.3-5c0-3.1,2.4-5.3,5.4-5.3c0.8,0,1.6,0.2,2.3,0.6V9z"/>
			<path class="st0" d="M51.8,2.2c0,1.1-0.9,1.9-1.9,1.9c-1.1,0-1.9-0.9-1.9-1.9s0.9-1.9,1.9-1.9C50.9,0.3,51.8,1.1,51.8,2.2z
				 M51.6,15.5h-3.4V5.9h3.4V15.5z"/>
		</g>
	</g>
	<g>
		<path class="st0" d="M52.6,14.8h-0.3v-0.1H53v0.1h-0.3v0.7h-0.1V14.8z"/>
		<path class="st0" d="M53.3,14.7h0.2l0.2,0.6h0l0.2-0.6h0.2v0.8H54v-0.6h0l-0.3,0.6h-0.1l-0.3-0.6h0v0.6h-0.1V14.7z"/>
	</g>
</g>
</svg>
